#!OML:ASF H:\Terrain\Walking\May29\JustinRory\Justin.ASF
:FULLY-SPECIFIED
:DEGREES
243
root 0.0599181 17.0796 -4.56626 8.21851 -15.2738 -3.31549
lowerback 10.0329 -2.65145 -5.94512
upperback 4.19038 -4.01396 4.5561
thorax -0.470581 -2.16037 8.56569
lowerneck -16.4019 5.43931 -4.80936
upperneck 13.7981 8.72648 -1.29655
head 6.76014 3.81251 1.25288
rclavicle 2.32081e-014 -1.78906e-014
rhumerus -45.081 -23.7374 -51.2738
rradius 110.476
rwrist -42.401
rhand -45.7826 41.1459
rfingers 7.12502
rthumb -18.5366 12.0091
lclavicle 2.32081e-014 -1.78906e-014
lhumerus -35.2403 4.10564 82.5401
lradius 47.2047
lwrist -6.67423
lhand -2.08393 35.9144
lfingers 7.12502
lthumb 23.5929 64.4871
rfemur -33.5734 -1.43237 16.7333
rtibia 70.3443
rfoot -14.3649 -4.71798
rtoes -14.0166
lfemur -14.7929 8.54782 -27.1443
ltibia 34.261
lfoot -28.5951 -3.85638
ltoes 5.56455
244
root 0.0374739 17.0679 -4.51112 8.1069 -14.808 -2.94856
lowerback 9.90805 -2.75055 -6.58791
upperback 4.37022 -4.20081 4.45196
thorax -0.13193 -2.28488 8.82359
lowerneck -17.0148 5.39084 -4.86349
upperneck 14.1416 8.6719 -0.971195
head 6.95706 3.79429 1.38763
rclavicle 2.60905e-014 -1.81888e-014
rhumerus -44.8569 -23.6608 -51.9461
rradius 110.549
rwrist -42.3741
rhand -45.5702 40.4525
rfingers 7.12502
rthumb -18.3323 11.2963
lclavicle 2.60905e-014 -1.81888e-014
lhumerus -34.4591 3.80555 82.5654
lradius 47.9076
lwrist -6.40789
lhand -2.38124 35.9906
lfingers 7.12502
lthumb 23.3077 64.5997
rfemur -34.4389 -0.927794 16.5831
rtibia 70.3506
rfoot -14.6936 -4.15708
rtoes -16.6537
lfemur -14.3436 8.52736 -27.4125
ltibia 33.8469
lfoot -28.3855 -4.04491
ltoes 4.4227
245
root 0.0210144 17.0663 -4.44305 8.02867 -14.2587 -2.91602
lowerback 10.2215 -2.90717 -6.73911
upperback 4.26913 -4.4375 4.41417
thorax -0.352818 -2.39123 8.91579
lowerneck -17.174 5.25909 -4.89445
upperneck 14.3887 8.51175 -0.913808
head 7.06416 3.70998 1.40579
rclavicle -5.80203e-014 4.60187e-014
rhumerus -45.1178 -23.2756 -52.4394
rradius 110.868
rwrist -42.5719
rhand -45.1602 39.5945
rfingers 7.12502
rthumb -17.9378 10.4017
lclavicle -5.80203e-014 4.60187e-014
lhumerus -34.1896 3.70729 82.4596
lradius 48.7227
lwrist -6.3077
lhand -2.20548 36.3083
lfingers 7.12502
lthumb 23.4763 64.8959
rfemur -35.0804 -0.490825 16.7402
rtibia 70.1795
rfoot -15.3645 -3.56831
rtoes -16.1297
lfemur -13.804 8.52484 -27.3122
ltibia 33.4922
lfoot -28.5509 -4.49925
ltoes 4.42201
246
root 0.0059706 17.0762 -4.36784 8.03025 -13.6193 -3.16375
lowerback 10.304 -3.046 -6.56804
upperback 4.2595 -4.60817 4.51781
thorax -0.37902 -2.47477 8.94927
lowerneck -17.1691 5.03785 -4.90724
upperneck 14.2918 8.24884 -1.12956
head 7.04826 3.56561 1.30951
rclavicle 1.42032e-013 -3.04141e-014
rhumerus -45.5045 -23.2205 -52.6757
rradius 111.131
rwrist -42.7558
rhand -45.1091 40.3056
rfingers 7.12502
rthumb -17.8886 11.1084
lclavicle 1.42032e-013 -3.04141e-014
lhumerus -33.7894 3.41134 82.5834
lradius 49.4927
lwrist -6.16261
lhand -1.85111 36.4603
lfingers 7.12502
lthumb 23.8162 65.004
rfemur -35.5973 -0.0719933 17.2697
rtibia 69.8321
rfoot -15.9419 -3.17736
rtoes -15.4814
lfemur -13.2329 8.47289 -26.8848
ltibia 33.106
lfoot -28.6212 -5.13793
ltoes 5.68308
247
root -0.00927691 17.0786 -4.29549 7.94995 -12.9021 -2.98619
lowerback 10.1955 -3.17838 -6.85281
upperback 4.39631 -4.80561 4.52762
thorax -0.106836 -2.59756 9.1243
lowerneck -17.3384 4.95105 -4.90756
upperneck 14.1882 8.13988 -1.14212
head 7.04594 3.51414 1.29712
rclavicle -1.26974e-014 -1.40143e-014
rhumerus -45.4976 -23.5316 -53.0479
rradius 111.222
rwrist -42.9153
rhand -45.2213 41.3364
rfingers 7.12502
rthumb -17.9966 12.149
lclavicle -1.26974e-014 -1.40143e-014
lhumerus -33.046 2.99801 82.746
lradius 49.9835
lwrist -6.06366
lhand -1.6669 36.1925
lfingers 7.12502
lthumb 23.9928 64.7131
rfemur -36.1348 0.0120845 17.4103
rtibia 69.4253
rfoot -16.3871 -2.84158
rtoes -16.2435
lfemur -12.6687 8.19863 -26.8991
ltibia 32.7359
lfoot -28.6719 -5.76325
ltoes 6.77129
248
root -0.0240058 17.0737 -4.23057 7.97646 -12.1883 -2.72535
lowerback 10.4241 -3.31765 -7.17533
upperback 4.23283 -5.03213 4.47302
thorax -0.331401 -2.69755 9.29519
lowerneck -17.393 4.94851 -4.79459
upperneck 14.3991 8.11692 -1.11628
head 7.12773 3.50336 1.29208
rclavicle -2.80783e-015 5.32246e-014
rhumerus -45.8233 -23.5751 -53.3117
rradius 111.425
rwrist -43.0687
rhand -45.9416 41.6481
rfingers 7.12502
rthumb -18.6895 12.5259
lclavicle -2.80783e-015 5.32246e-014
lhumerus -32.7365 2.79846 82.7627
lradius 50.4713
lwrist -6.22199
lhand -1.87385 35.7868
lfingers 7.12502
lthumb 23.7944 64.3333
rfemur -36.8774 -0.0898993 17.5114
rtibia 68.9535
rfoot -16.9181 -2.59259
rtoes -17.6736
lfemur -12.3589 7.93021 -27.0429
ltibia 32.4472
lfoot -28.9236 -6.09586
ltoes 6.05272
249
root -0.0415947 17.0621 -4.17431 8.13511 -11.7672 -2.59232
lowerback 10.513 -3.34125 -7.49095
upperback 4.10179 -5.09867 4.4594
thorax -0.474582 -2.72226 9.48269
lowerneck -17.2123 4.8942 -4.77766
upperneck 14.2502 8.0147 -1.07971
head 7.04925 3.46643 1.28163
rclavicle 1.63003e-014 -1.32192e-014
rhumerus -46.2734 -23.6692 -53.3932
rradius 111.713
rwrist -43.1237
rhand -46.4129 41.941
rfingers 7.12502
rthumb -19.1428 12.8631
lclavicle 1.63003e-014 -1.32192e-014
lhumerus -32.374 2.39195 82.8868
lradius 51.1384
lwrist -5.9501
lhand -2.42785 35.7705
lfingers 7.12502
lthumb 23.263 64.3853
rfemur -37.8188 -0.000719093 17.8155
rtibia 68.4103
rfoot -17.4194 -2.29551
rtoes -19.769
lfemur -12.2678 7.78984 -27.1112
ltibia 32.1823
lfoot -29.1957 -6.11942
ltoes 4.27796
250
root -0.0560801 17.054 -4.11618 8.29575 -11.4713 -2.48282
lowerback 10.5101 -3.37781 -7.85613
upperback 4.06944 -5.18314 4.43356
thorax -0.454512 -2.76913 9.67385
lowerneck -17.1491 4.90997 -4.71246
upperneck 14.1141 7.988 -0.953605
head 6.99064 3.47512 1.30398
rclavicle 1.6319e-014 -2.43511e-014
rhumerus -46.4898 -23.7065 -53.7219
rradius 112.008
rwrist -43.2235
rhand -46.6214 42.3308
rfingers 7.12502
rthumb -19.3433 13.2728
lclavicle 1.6319e-014 -2.43511e-014
lhumerus -31.8563 1.8573 82.9605
lradius 51.7106
lwrist -5.36961
lhand -2.65859 35.9555
lfingers 7.12502
lthumb 23.0416 64.598
rfemur -38.6737 0.105829 18.1435
rtibia 67.7515
rfoot -17.8533 -1.43401
rtoes -19.2787
lfemur -12.0656 7.69398 -27.1556
ltibia 31.8831
lfoot -29.3386 -6.43131
ltoes 3.9406
251
root -0.0682158 17.067 -4.04806 8.41663 -10.963 -2.51005
lowerback 10.5703 -3.50854 -7.96998
upperback 4.03976 -5.37151 4.43508
thorax -0.464531 -2.86369 9.76176
lowerneck -17.4143 4.90135 -4.84975
upperneck 14.4732 7.95457 -0.467052
head 7.12459 3.48359 1.49406
rclavicle -8.05948e-014 5.23798e-014
rhumerus -46.7136 -23.7004 -54.1507
rradius 112.231
rwrist -43.2712
rhand -48.2942 44.9265
rfingers 7.12502
rthumb -20.9511 16.038
lclavicle -8.05948e-014 5.23798e-014
lhumerus -31.3884 1.62864 82.9599
lradius 52.0831
lwrist -5.27993
lhand -2.45539 35.957
lfingers 7.12502
lthumb 23.2366 64.5751
rfemur -39.3643 -0.0213286 18.6701
rtibia 66.9111
rfoot -17.9129 -0.446122
rtoes -17.2625
lfemur -11.7027 7.65977 -26.9946
ltibia 31.5691
lfoot -29.4661 -6.98057
ltoes 4.72141
